<svg width="63" height="48" viewBox="0 0 63 48" fill="none" xmlns="http://www.w3.org/2000/svg">
<path d="M13.1679 0.00740051C12.9279 0.0220909 12.4798 0.0930977 12.3109 0.142063C11.4735 0.382011 10.7145 0.942707 10.2248 1.68459C9.95549 2.09348 9.79389 2.49013 9.67392 3.03123L9.6176 3.28342V15.8317V28.38L9.68616 28.6983C9.84041 29.401 10.1318 29.9691 10.5994 30.4686C11.1601 31.0709 11.8653 31.4504 12.6929 31.5997L12.9793 31.6487L18.9976 31.6365C30.7134 31.6095 29.81 31.6071 29.8883 31.6487C29.9348 31.6732 29.9691 31.7124 29.9814 31.7638C29.9936 31.8079 29.9985 33.1325 29.996 34.7093C29.9887 37.454 29.9862 37.5788 29.9446 37.6107C29.9079 37.6376 28.9089 37.6425 24.1663 37.645C13.4592 37.645 1.12638 37.6743 0.950095 37.6988C0.406539 37.7723 -0.00724907 38.2522 9.62815e-05 38.7982C0.00499318 39.2879 0.32574 39.687 0.864399 39.8681C0.994167 39.9098 1.90989 39.9122 30.9803 39.9196C50.1101 39.922 61.0399 39.9171 61.1746 39.9024C61.4366 39.873 61.7426 39.7408 61.914 39.5817C62.4037 39.1287 62.3743 38.3403 61.8504 37.9339C61.6741 37.7968 61.5149 37.7282 61.3019 37.6988C61.1256 37.6743 48.832 37.645 38.1053 37.645C33.1496 37.645 32.3808 37.6401 32.3343 37.6082L32.278 37.574V34.6481C32.278 31.4406 32.2682 31.6732 32.42 31.6316C32.4886 31.612 32.9391 31.612 43.1858 31.6365L49.1356 31.6512L49.4539 31.5973C50.1198 31.4871 50.6952 31.2227 51.2192 30.7844C51.8803 30.2359 52.299 29.5161 52.4826 28.6102L52.5389 28.3311V15.8317V3.33239L52.4728 3.02389C52.3528 2.46809 52.1374 1.96861 51.8362 1.54502C51.6477 1.28059 51.1825 0.830078 50.9033 0.643997C50.4626 0.345287 49.9338 0.137169 49.4049 0.0490227C49.1454 0.00495148 48.5112 0.00250244 31.2129 5.34058e-05C21.3555 5.34058e-05 13.2364 0.00250244 13.1679 0.00740051ZM49.1845 2.18162C49.4245 2.23304 49.6742 2.36281 49.8652 2.53665C50.0635 2.71783 50.1933 2.91126 50.301 3.17814L50.3843 3.38136L50.3965 13.1752C50.4063 21.4338 50.4137 22.9812 50.443 23.0546C50.4675 23.1183 50.4798 23.3166 50.4871 23.7892C50.4969 24.3401 50.492 24.4454 50.4626 24.487C50.4259 24.536 50.3892 24.536 31.1346 24.5482C15.44 24.558 11.8383 24.5555 11.809 24.5286C11.7771 24.5017 11.7722 23.297 11.7649 14.015C11.7624 7.14952 11.7673 3.48664 11.7845 3.40095C11.7967 3.3275 11.853 3.17324 11.9069 3.05817C12.1199 2.60031 12.4847 2.2967 12.9524 2.18407C13.1728 2.13021 48.9323 2.12776 49.1845 2.18162ZM31.1713 26.7763H50.2986L50.35 26.8277C50.399 26.8767 50.399 26.8963 50.3916 27.5916C50.3818 28.3751 50.3843 28.3629 50.208 28.6983C50.0586 28.9848 49.7575 29.2639 49.4588 29.3961C49.1625 29.5283 50.4749 29.5186 31.0783 29.5186C15.0532 29.5186 13.1409 29.5137 12.9793 29.4818C12.6488 29.4108 12.3182 29.2149 12.115 28.9628C11.9804 28.7987 11.8163 28.4657 11.7845 28.2919C11.7698 28.2209 11.76 27.8634 11.76 27.4961C11.76 26.8302 11.76 26.8277 11.8163 26.7885C11.853 26.7616 11.8971 26.7543 11.9559 26.7616C12.0024 26.7689 20.6503 26.7763 31.1713 26.7763Z" fill="#6AA8B3"/>
<path d="M29.4011 4.1918C29.3742 4.19915 29.22 4.24812 29.0584 4.30198C28.4438 4.5101 28.1573 4.69863 27.648 5.2275L27.2832 5.60701L27.0874 5.99386C26.9796 6.20688 26.8915 6.4052 26.8915 6.43703C26.8915 6.46641 26.8694 6.56925 26.8425 6.66229C26.8156 6.75533 26.7935 6.90713 26.7935 6.99528C26.7935 7.08587 26.7764 7.20585 26.7568 7.26216C26.7103 7.39438 26.7103 7.55842 26.7568 7.71267C26.7764 7.77878 26.7935 7.90855 26.7935 7.99914C26.7935 8.09218 26.8082 8.21461 26.8278 8.27092C26.8474 8.32968 26.8743 8.43497 26.889 8.50352C26.9209 8.65533 27.1633 9.13767 27.3224 9.36783C27.3885 9.46576 28.1794 10.2762 29.3938 11.4906C31.0489 13.1458 31.377 13.4641 31.4799 13.5082C31.5901 13.5547 31.6439 13.5596 32.0357 13.5596C32.4568 13.5571 32.4764 13.5547 32.6013 13.4935C32.7065 13.4396 33.1032 13.0552 34.6604 11.5029C36.4576 9.70816 36.602 9.55636 36.7685 9.30661C36.9693 9.00546 37.0109 8.91731 37.1578 8.49863L37.2607 8.20481V7.49476V6.78471L37.1529 6.46641C37.0134 6.04773 36.8101 5.64863 36.6461 5.4699C36.5751 5.39399 36.4894 5.28626 36.4551 5.2324C36.4208 5.17853 36.3351 5.09528 36.2641 5.05121C36.1931 5.00469 36.1025 4.93124 36.0609 4.88716C35.9777 4.79657 35.6594 4.58111 35.4659 4.48562C35.3092 4.40482 35.0203 4.30198 34.8857 4.27505C34.8318 4.26526 34.7192 4.23833 34.6335 4.21384C34.5013 4.17956 34.3862 4.17467 33.8867 4.18201L33.2942 4.1918L33.042 4.2824C32.9049 4.33137 32.7653 4.37299 32.7359 4.37299C32.7041 4.37299 32.6257 4.40727 32.5621 4.44644C32.3515 4.58111 32.1091 4.69129 32.0259 4.69129C31.9745 4.69129 31.8373 4.63742 31.6635 4.55418C31.5093 4.47827 31.2473 4.36564 31.0783 4.30443L30.7723 4.1918L30.1112 4.18691C29.7488 4.18446 29.4281 4.18691 29.4011 4.1918ZM30.6009 5.40134C30.7233 5.44296 30.8653 5.49193 30.9192 5.50907C31.0538 5.55314 31.4113 5.79064 31.5313 5.91306C31.6096 5.99631 31.6684 6.02814 31.8251 6.07711L32.0234 6.13832L32.2266 6.07466C32.398 6.01835 32.4544 5.98897 32.5817 5.87144C32.7947 5.67312 33.0273 5.54335 33.375 5.42827C33.6663 5.33033 33.6835 5.32788 33.9993 5.32788C34.2025 5.33033 34.3544 5.34258 34.4082 5.36216C34.8563 5.52866 35.0081 5.59721 35.204 5.72698C35.5639 5.95958 35.8479 6.35134 36.0389 6.88265C36.1074 7.06873 36.1099 7.09811 36.1099 7.48252C36.1074 7.84244 36.1025 7.9061 36.0511 8.05791C35.9752 8.28316 35.8332 8.56229 35.6912 8.7704C35.5663 8.95404 32.2462 12.306 32.1263 12.3696C32.0895 12.3892 32.0357 12.4039 32.0038 12.4039C31.923 12.4039 28.5319 9.0128 28.3605 8.76061C28.1206 8.41048 27.9884 8.09463 27.9394 7.76409C27.9051 7.5217 27.9051 7.44579 27.9394 7.21319C27.9859 6.88265 28.1451 6.50804 28.3801 6.1775C28.5442 5.94979 28.5932 5.90082 28.7768 5.7784C28.8649 5.71964 28.9629 5.65108 28.9947 5.62904C29.0265 5.60701 29.1367 5.55804 29.2395 5.52131C29.3424 5.48459 29.4917 5.42582 29.5725 5.39154C29.7047 5.33523 29.7513 5.32788 30.05 5.32788C30.3536 5.32788 30.3977 5.33278 30.6009 5.40134Z" fill="#6AA8B3"/>
<path d="M38.2033 12.9204C38.1299 12.9473 38.0197 12.9865 37.9585 13.0085C37.8801 13.0379 37.7651 13.1285 37.5594 13.3268C37.4002 13.4786 37.224 13.6329 37.1676 13.6672C37.1113 13.7014 36.8665 13.9267 36.6241 14.1667C36.3817 14.4066 36.1368 14.6294 36.0805 14.6661C36.0242 14.7004 35.7231 14.9795 35.4121 15.2856C35.1012 15.5917 34.8196 15.8585 34.7853 15.8757C34.6678 15.9369 34.5992 15.8781 34.5698 15.6871C34.56 15.6284 34.5037 15.4815 34.4425 15.3639C34.3519 15.1877 34.2907 15.1118 34.0826 14.9085C33.8426 14.6759 33.8231 14.6637 33.6003 14.5829L33.3677 14.4972L32.0577 14.485L30.7478 14.4727L30.405 14.3087C30.0671 14.1471 29.5113 13.9463 29.4036 13.9463C29.3742 13.9463 29.2665 13.9243 29.1661 13.8973C29.0094 13.8557 28.9041 13.8484 28.3655 13.8484C27.7509 13.8484 27.746 13.8484 27.4595 13.9243C27.3028 13.9659 27.1119 14.0148 27.0384 14.032C26.965 14.0467 26.8254 14.0956 26.7275 14.1373C26.632 14.1813 26.5414 14.2156 26.5242 14.2156C26.4557 14.2156 25.8901 14.5706 25.6306 14.7788C25.5644 14.8326 25.4592 14.9085 25.3979 14.9477C25.2608 15.0334 25.0821 15.2195 24.994 15.3664C24.9572 15.4276 24.8691 15.5402 24.8005 15.6161C24.732 15.692 24.6438 15.7949 24.6071 15.8414C24.5239 15.9442 24.5043 15.9467 24.3035 15.8757L24.1517 15.8218L23.946 15.8879L23.7379 15.954L22.876 16.8159C21.9701 17.7218 21.9089 17.7977 21.8795 18.0303C21.8501 18.2898 21.7081 18.1307 24.257 20.6795C26.0811 22.5061 26.6148 23.0251 26.6883 23.0496C26.8229 23.0986 27.1363 23.0741 27.2392 23.008C27.2833 22.9811 27.6897 22.5869 28.1427 22.1315C29.051 21.2182 29.0853 21.1741 29.1122 20.8803C29.1196 20.7897 29.1392 20.6918 29.1588 20.6648C29.1955 20.6036 29.6019 20.4592 29.7317 20.4592C29.7758 20.4592 29.8688 20.442 29.9374 20.4224C30.4001 20.2878 30.4026 20.2878 31.4285 20.2878C32.2242 20.2878 32.4128 20.2804 32.5131 20.251C32.5866 20.2266 32.78 20.207 33.0249 20.1996C33.2403 20.1923 33.4705 20.1703 33.5366 20.1507C33.6027 20.1311 33.708 20.1164 33.7692 20.1164C33.8304 20.1164 33.9259 20.1041 33.9798 20.0895C34.0336 20.0748 34.1389 20.0478 34.2124 20.0307C34.5551 19.9499 34.9763 19.7834 35.4537 19.5434C35.9899 19.2741 36.2348 19.1248 36.416 18.9558C36.4772 18.8995 36.5923 18.8065 36.6731 18.7526C36.7539 18.6963 37.0893 18.3804 37.4198 18.0474C37.7504 17.7145 38.0809 17.4011 38.1544 17.3496C38.2278 17.2982 38.6881 16.8624 39.1729 16.3801C40.1425 15.4154 40.1743 15.3762 40.3139 14.9502C40.3727 14.7739 40.3825 14.7029 40.3825 14.4703C40.3825 14.2352 40.3727 14.1691 40.3115 13.9855C40.2723 13.8679 40.2086 13.7259 40.1694 13.6721C40.1327 13.6182 40.0764 13.535 40.047 13.486C39.9124 13.2632 39.6014 13.033 39.3027 12.9302C39.1386 12.8739 39.0872 12.869 38.7298 12.8714C38.409 12.8739 38.3135 12.8812 38.2033 12.9204ZM38.9428 14.1079C39.0701 14.1716 39.1705 14.3013 39.1974 14.4311C39.2341 14.6098 39.1656 14.6857 37.9071 15.9295C37.2582 16.5686 36.6877 17.1195 36.6388 17.1513C36.5898 17.1831 36.3964 17.3594 36.2079 17.5455C36.0193 17.7291 35.799 17.925 35.7182 17.9764C35.6374 18.0303 35.4954 18.1282 35.3999 18.1919C35.1648 18.3535 34.3862 18.7404 34.2295 18.7722C34.1609 18.7844 34.0263 18.8309 33.9332 18.8726C33.8084 18.9289 33.7055 18.9534 33.5537 18.9681C33.4362 18.9779 33.3113 18.9974 33.2697 19.0097C33.2305 19.0244 33.0567 19.0415 32.8853 19.0489C32.7139 19.0587 32.5425 19.0782 32.5058 19.0929C32.4568 19.115 32.0994 19.1272 31.2865 19.137C30.2973 19.1492 30.121 19.159 30.0378 19.1933C29.9839 19.2154 29.8933 19.2325 29.837 19.2349C29.7807 19.2349 29.7048 19.2472 29.6656 19.2619C29.6289 19.2766 29.5236 19.2986 29.433 19.3108C29.3424 19.3206 29.0535 19.4039 28.7915 19.492C28.5271 19.5802 28.2822 19.6512 28.2455 19.6512C28.1892 19.6512 27.9541 19.4284 26.8132 18.2849C25.7799 17.2541 25.4469 16.9065 25.4469 16.8624C25.4469 16.7743 25.8509 16.1842 26.0468 15.9883C26.201 15.8316 26.3382 15.7263 26.583 15.5745C26.6271 15.5476 26.7005 15.4962 26.747 15.4619C26.8793 15.359 27.0041 15.3052 27.3445 15.2023C27.9296 15.0236 28.0349 15.0016 28.3606 14.9991C28.5222 14.9991 28.6691 15.0138 28.7523 15.0359C28.8258 15.0579 28.958 15.0824 29.0461 15.0946C29.291 15.1264 29.5113 15.2097 29.9398 15.4252L30.3316 15.6235L31.7027 15.6357L33.0763 15.648L33.2012 15.741C33.4289 15.9075 33.4925 16.1719 33.3701 16.4364C33.2893 16.6102 33.1669 16.6861 32.9343 16.7155C32.8363 16.7277 32.7017 16.7522 32.6356 16.7743C32.5548 16.7987 32.4152 16.811 32.2046 16.811C32.0039 16.811 31.857 16.8232 31.786 16.8453C31.7174 16.8697 31.5289 16.8844 31.2497 16.8918C30.7796 16.9016 30.7356 16.9138 30.596 17.0607C30.5544 17.1048 30.5054 17.1733 30.4932 17.2101C30.4564 17.308 30.4589 17.6532 30.4981 17.7487C30.547 17.8589 30.7135 18.0034 30.8384 18.0377C30.9927 18.0793 31.7933 18.0523 31.9231 18.0034C31.9965 17.974 32.114 17.9642 32.3907 17.9617C32.6625 17.9617 32.7923 17.952 32.8804 17.9226C32.9661 17.8932 33.1277 17.8785 33.4411 17.8712L33.8818 17.8589L34.183 17.7536C34.631 17.592 34.9959 17.3423 35.4488 16.8844C35.6374 16.6935 35.8479 16.5 35.914 16.456C35.9826 16.4119 36.2789 16.1401 36.5727 15.8536C36.8665 15.5647 37.1505 15.3027 37.2019 15.2685C37.2533 15.2317 37.508 14.9942 37.77 14.7396C38.1862 14.3258 38.3723 14.1716 38.5951 14.0516C38.671 14.01 38.7861 14.0295 38.9428 14.1079ZM24.4161 17.5945C24.5459 17.7145 24.6683 17.832 24.6879 17.854C24.7246 17.8907 26.8891 20.0601 26.9209 20.0895C27.0262 20.1874 27.5673 20.753 27.5942 20.7946C27.6162 20.8289 27.6236 20.8705 27.6113 20.9048C27.5918 20.9733 26.987 21.5757 26.9184 21.5977C26.8891 21.605 26.8499 21.6026 26.8303 21.5904C26.8083 21.5806 26.0272 20.8068 25.0919 19.874C23.5592 18.3462 23.3902 18.1699 23.3902 18.1013C23.3902 18.0352 23.4367 17.9789 23.7134 17.6998C23.9803 17.4329 24.0513 17.3741 24.1101 17.3741C24.1639 17.3741 24.2325 17.4231 24.4161 17.5945Z" fill="#6AA8B3"/>
<path d="M4.94113 40.4533C4.91419 40.4582 4.75994 40.4729 4.59834 40.4852C4.43674 40.4974 4.22863 40.5268 4.13314 40.5464C4.0401 40.5684 3.89809 40.5978 3.81974 40.61C3.74139 40.6247 3.65814 40.6468 3.6361 40.6566C3.61407 40.6688 3.54551 40.6982 3.4843 40.7202C3.29822 40.7912 3.25904 40.8108 3.05092 40.9332C2.83056 41.0655 2.56123 41.3225 2.45105 41.5086C2.34577 41.6874 2.28456 41.8171 2.28456 41.8636C2.28456 41.8857 2.27476 41.9126 2.26007 41.92C2.24783 41.9273 2.23559 41.9591 2.23559 41.9885C2.23559 42.0179 2.216 42.0742 2.19397 42.1158C2.13275 42.2236 2.13031 43.2935 2.18907 43.438C2.21355 43.4919 2.25273 43.6118 2.28211 43.7024C2.39963 44.0966 2.78404 44.4933 3.32025 44.7773C3.46716 44.8557 3.69976 44.9634 3.75852 44.9805C3.78791 44.9903 3.88095 45.0295 3.96419 45.0662C4.04499 45.1054 4.16742 45.1519 4.23352 45.1715C4.30208 45.1911 4.40491 45.2303 4.46613 45.2572C4.52489 45.2841 4.63752 45.3258 4.71587 45.3478C5.25698 45.5045 5.32308 45.8399 4.84319 45.9942C4.68649 46.0431 3.80994 46.0015 3.712 45.9403C3.69486 45.9281 3.61162 45.9085 3.52837 45.8962C3.36677 45.8718 3.30801 45.8546 3.04358 45.7616C2.95543 45.7322 2.8526 45.7004 2.81097 45.6906C2.7718 45.6832 2.68366 45.6489 2.6151 45.6196C2.31884 45.4825 2.23804 45.4531 2.21355 45.4678C2.19397 45.48 2.18662 45.7763 2.18662 46.4618C2.18662 47.3261 2.19152 47.4412 2.2258 47.4779C2.28211 47.5318 2.46819 47.6199 2.63958 47.6714C2.72038 47.6959 2.80363 47.7252 2.82567 47.735C2.8477 47.7473 2.95788 47.7742 3.07051 47.7962C3.18314 47.8183 3.32025 47.8477 3.37412 47.8599C3.52592 47.9015 3.74873 47.926 4.28004 47.9676C4.71832 48.0019 4.81625 48.0019 5.21045 47.9701C5.65852 47.9334 5.83726 47.9064 5.96947 47.8648C6.0111 47.8501 6.10414 47.8256 6.17759 47.8085C6.31715 47.7767 6.35388 47.7644 6.62321 47.642C7.1839 47.3873 7.62218 46.883 7.77398 46.3125C7.82295 46.1313 7.8303 46.048 7.82785 45.6049C7.82785 45.1519 7.82295 45.076 7.76419 44.8116C7.72746 44.6524 7.68829 44.5104 7.67359 44.4957C7.6589 44.481 7.64666 44.4541 7.64666 44.437C7.64666 44.3782 7.47527 44.1285 7.33326 43.9816C7.08842 43.7294 6.78236 43.5335 6.39795 43.3866C6.33674 43.3645 6.2437 43.3254 6.18983 43.3009C6.13597 43.2788 6.05272 43.2519 6.0062 43.2421C5.95968 43.2348 5.8446 43.2005 5.74911 43.1687C5.65607 43.1368 5.49447 43.0879 5.39409 43.0634C5.2937 43.0365 5.1321 42.9801 5.03661 42.9361C4.8995 42.8773 4.85543 42.843 4.8236 42.7794C4.78932 42.7035 4.78932 42.6912 4.83095 42.6251C4.87991 42.5443 4.98765 42.4953 5.11252 42.4953C5.15659 42.4953 5.23984 42.4782 5.29615 42.4586C5.43326 42.4096 5.80788 42.4096 5.96703 42.4586C6.03313 42.4782 6.12617 42.4953 6.17514 42.4953C6.25594 42.4953 6.56445 42.5541 6.7995 42.6153C6.85092 42.6276 6.90478 42.6496 6.91947 42.6643C6.93416 42.679 6.96599 42.6912 6.98803 42.6912C7.01006 42.6912 7.11045 42.7231 7.20839 42.7647C7.41406 42.8479 7.46303 42.8553 7.48506 42.799C7.49241 42.7769 7.49975 42.3386 7.49975 41.8245C7.49975 41.0801 7.49241 40.8794 7.46793 40.8426C7.41406 40.7716 7.02231 40.6737 6.42244 40.5856C6.33429 40.5733 6.19718 40.5488 6.11638 40.5341C5.8495 40.4876 5.04396 40.4313 4.94113 40.4533Z" fill="#6AA8B3"/>
<path d="M42.3657 40.4631C42.2775 40.4729 42.1306 40.4826 42.04 40.4851C41.947 40.4851 41.8515 40.4998 41.827 40.512C41.8001 40.5267 41.7046 40.5488 41.614 40.561C41.2663 40.61 41.1733 40.6345 40.8231 40.7642C40.1792 41.0042 39.6601 41.4865 39.3541 42.128C39.3124 42.2162 39.2635 42.3141 39.2463 42.3484C39.2292 42.3826 39.1949 42.4928 39.1704 42.5932C39.1459 42.6936 39.1166 42.7866 39.1043 42.7989C39.0945 42.8136 39.0847 42.8479 39.0847 42.8797C39.0847 42.9091 39.0676 42.9972 39.048 43.0731C39.0284 43.1515 38.999 43.4428 38.9819 43.7219C38.9403 44.4565 39.0015 45.3698 39.1092 45.6415C39.119 45.6685 39.1484 45.7664 39.1704 45.8619C39.1949 45.9549 39.2292 46.0602 39.2463 46.0945C39.2635 46.1288 39.3124 46.2365 39.3565 46.332C39.4006 46.4299 39.4422 46.5107 39.452 46.5107C39.4593 46.5107 39.4863 46.5499 39.5108 46.5989C39.6014 46.7923 39.9148 47.1326 40.1669 47.3163C40.424 47.5024 40.4877 47.5391 40.7129 47.6346C40.8207 47.6786 40.926 47.7227 40.9456 47.7325C40.9651 47.7423 41.0655 47.7692 41.1659 47.7937C41.2663 47.8158 41.4059 47.85 41.472 47.8696C41.6262 47.9137 41.6899 47.9235 42.2457 47.9725C42.6668 48.0092 42.7305 48.0092 43.1394 47.9725C43.5948 47.9308 43.7882 47.9039 43.9327 47.8623C43.9792 47.85 44.1016 47.8182 44.1995 47.7962C44.2999 47.7717 44.4003 47.7447 44.4199 47.735C44.4419 47.7252 44.508 47.6958 44.5693 47.6737C44.9071 47.544 45.2573 47.3138 45.5021 47.0567C45.9208 46.6185 46.1069 46.2585 46.2856 45.5314C46.3003 45.4701 46.3223 45.3869 46.3346 45.3477C46.3444 45.3061 46.3664 45.0368 46.3811 44.7478C46.4105 44.2018 46.3787 43.1931 46.3297 43.1049C46.3174 43.0805 46.3077 43.0315 46.3077 42.9972C46.3077 42.9605 46.293 42.8968 46.2734 42.8552C46.2562 42.8111 46.222 42.6936 46.1975 42.5932C46.173 42.4928 46.1216 42.341 46.0824 42.2578C46.0457 42.1745 46.0138 42.1011 46.0138 42.0913C46.0138 42.0815 45.9894 42.0399 45.96 41.9982C45.9281 41.9542 45.8841 41.8807 45.8571 41.8342C45.8033 41.7338 45.5903 41.4645 45.4727 41.3494C45.2475 41.129 44.8631 40.8866 44.5448 40.7667C44.2069 40.6369 44.1261 40.6173 43.7613 40.561C43.6731 40.5463 43.5752 40.5267 43.5409 40.5145C43.4821 40.4924 43.2202 40.4729 42.7452 40.4533C42.6252 40.4459 42.4538 40.4508 42.3657 40.4631ZM42.9043 42.8038C43.2006 42.843 43.4748 43.0143 43.5629 43.2151C43.5874 43.269 43.6217 43.3473 43.6388 43.389C43.7001 43.531 43.7196 43.6877 43.7294 44.148C43.7417 44.6156 43.7172 44.8752 43.6511 45.0294C43.6339 45.0686 43.5997 45.1494 43.5752 45.2057C43.5336 45.3085 43.301 45.5558 43.2471 45.5558C43.23 45.5558 43.1834 45.5705 43.1418 45.5901C43.0977 45.6097 42.9778 45.6391 42.8749 45.6538C42.6546 45.6905 42.3779 45.6587 42.2041 45.5779C42.1502 45.5509 42.0939 45.5314 42.0792 45.5314C42.0351 45.5314 41.8148 45.2767 41.7805 45.1886C41.7633 45.142 41.734 45.0637 41.7144 45.0172C41.6385 44.8311 41.6091 44.1896 41.6556 43.7489C41.707 43.2788 41.8956 42.9752 42.2016 42.8723C42.3803 42.8136 42.635 42.7671 42.7207 42.7793C42.7623 42.7866 42.8431 42.7964 42.9043 42.8038Z" fill="#6AA8B3"/>
<path d="M10.3667 40.6492C10.3374 40.686 10.3153 40.7349 10.3153 40.7594C10.3153 40.7839 10.3055 40.8084 10.2933 40.8182C10.281 40.8255 10.2517 40.8941 10.2296 40.9724C10.1929 41.0973 10.1684 41.1634 10.0925 41.3323C10.0803 41.3593 10.0484 41.4572 10.0191 41.5527C9.98968 41.6458 9.95785 41.7339 9.94805 41.7486C9.93826 41.7608 9.89909 41.8563 9.86726 41.9567C9.75708 42.2823 9.6322 42.6276 9.60772 42.679C9.59548 42.7059 9.54406 42.8381 9.49509 42.9728C9.29677 43.5213 9.238 43.6853 9.21597 43.7318C9.20373 43.7588 9.167 43.8518 9.13762 43.9399C9.0911 44.0771 8.99071 44.3562 8.9344 44.5153C8.9246 44.5423 8.90012 44.6035 8.88053 44.65C8.80953 44.8336 8.60386 45.4041 8.58672 45.4678C8.57937 45.5021 8.56223 45.5363 8.55244 45.5437C8.5402 45.551 8.50837 45.6367 8.47898 45.7347C8.4496 45.8301 8.41532 45.9379 8.40063 45.9722C8.38594 46.0064 8.35901 46.0652 8.34187 46.1068C8.32473 46.146 8.2929 46.2415 8.27087 46.3149C8.24883 46.3884 8.20721 46.4986 8.18027 46.5598C8.15334 46.621 8.11906 46.7116 8.10927 46.7606C8.09703 46.812 8.0603 46.9099 8.02847 46.9809C7.99664 47.0519 7.95746 47.1548 7.94033 47.2086C7.89625 47.3457 7.84239 47.4951 7.81301 47.549C7.75669 47.6567 7.72241 47.8183 7.74935 47.8501C7.78607 47.8966 10.3349 47.8966 10.3937 47.8501C10.4402 47.8134 10.4916 47.7081 10.57 47.478C10.6801 47.1621 10.8026 46.8169 10.827 46.7679C10.8393 46.741 10.8687 46.6724 10.8907 46.6137L10.9348 46.5108H11.7232C12.634 46.5108 12.5508 46.4863 12.6536 46.7924C12.6903 46.9001 12.7344 47.0201 12.7515 47.0617C12.7711 47.1009 12.8127 47.2184 12.8495 47.3188C12.8837 47.4192 12.9352 47.5685 12.9645 47.6493C13.0527 47.9064 12.9058 47.8844 14.4018 47.8771L15.7142 47.8697L15.7215 47.8109C15.7264 47.7791 15.719 47.7301 15.7044 47.7008C15.6799 47.6518 15.6529 47.571 15.4669 47.0397C15.4179 46.905 15.3738 46.785 15.3665 46.7704C15.3518 46.7483 15.3028 46.6161 15.1265 46.1191C15.0922 46.0187 15.0482 45.9012 15.0286 45.862C14.9968 45.7934 14.9184 45.5804 14.7813 45.1764C14.7495 45.0809 14.7078 44.9707 14.6883 44.9316C14.6711 44.8899 14.6417 44.814 14.627 44.7602C14.5977 44.6647 14.5511 44.5398 14.4899 44.3929C14.4728 44.3513 14.441 44.2631 14.4214 44.1946C14.4018 44.126 14.3626 44.0232 14.3332 43.9669C14.3063 43.9081 14.2647 43.8004 14.2426 43.722C14.2206 43.6461 14.1765 43.5262 14.1447 43.4552C14.1129 43.3841 14.0859 43.3156 14.0859 43.3033C14.0859 43.2691 13.9855 42.9777 13.9635 42.9483C13.9537 42.9336 13.9219 42.8479 13.8925 42.7549C13.8631 42.6619 13.8313 42.5737 13.8191 42.559C13.8093 42.5443 13.7652 42.4244 13.7211 42.2897C13.677 42.1575 13.633 42.0302 13.6207 42.0081C13.584 41.942 13.3269 41.2246 13.3269 41.1903C13.3269 41.1732 13.3171 41.1487 13.3049 41.134C13.2902 41.1218 13.2461 41.0067 13.2045 40.8794C13.1604 40.7521 13.1139 40.6321 13.1017 40.615C13.0821 40.5929 12.7809 40.5856 11.7477 40.5856H10.4157L10.3667 40.6492ZM11.8187 43.4894C11.8481 43.5678 11.8799 43.6486 11.8897 43.6633C11.8995 43.6804 11.9264 43.7514 11.946 43.8224C11.968 43.8934 12.0121 44.0134 12.0464 44.0869C12.0807 44.1603 12.1296 44.2925 12.1566 44.3807C12.1835 44.4688 12.2178 44.5521 12.23 44.5692C12.2863 44.6378 12.2153 44.65 11.7305 44.65H11.2384L11.2531 44.5447C11.258 44.4884 11.2898 44.3856 11.3192 44.3195C11.3706 44.2068 11.4294 44.0501 11.6008 43.5727C11.7085 43.2764 11.7403 43.2642 11.8187 43.4894Z" fill="#6AA8B3"/>
<path d="M16.3434 40.6149C16.3018 40.6565 16.2993 47.8084 16.3434 47.8525C16.3899 47.899 18.8678 47.8941 18.9069 47.8476C18.9265 47.8231 18.9314 46.8535 18.929 44.2067L18.9216 40.5977L17.6484 40.5904C16.6764 40.5855 16.3655 40.5928 16.3434 40.6149Z" fill="#6AA8B3"/>
<path d="M19.7003 40.6124C19.6758 40.6369 19.6685 41.3959 19.6685 44.2361C19.6685 47.3065 19.6734 47.8304 19.7027 47.8549C19.7297 47.877 20.1704 47.8818 21.4974 47.8745C23.4342 47.8623 23.99 47.8353 24.2348 47.7349C24.2617 47.7227 24.3107 47.708 24.345 47.7031C24.5776 47.6566 25.0061 47.4681 25.2999 47.282C25.5031 47.1547 25.9169 46.7311 26.0393 46.5254C26.1666 46.3124 26.2303 46.19 26.2303 46.1581C26.2303 46.1459 26.245 46.1165 26.2621 46.0969C26.2793 46.0749 26.316 45.9916 26.3405 45.9108C26.365 45.83 26.409 45.6856 26.4409 45.5925C26.5315 45.3085 26.5608 44.9682 26.5584 44.2337C26.5584 43.5726 26.5217 43.1392 26.4556 42.9482C26.4409 42.9066 26.4041 42.7915 26.3748 42.6911C26.2523 42.2602 26.005 41.8293 25.699 41.5134C25.4737 41.2808 25.082 40.9968 24.9326 40.9601C24.8983 40.9527 24.8273 40.9209 24.7735 40.894C24.7196 40.8646 24.6045 40.8205 24.5164 40.796C24.4282 40.7716 24.3254 40.7397 24.2838 40.7275C24.1981 40.6981 24.0463 40.6663 23.8431 40.632C23.7623 40.6197 22.8172 40.6026 21.7129 40.5953C20.1141 40.583 19.7248 40.5879 19.7003 40.6124ZM23.133 42.8601C23.2554 42.8846 23.3877 42.9213 23.4317 42.9409C23.559 42.9972 23.7035 43.149 23.7721 43.2984C23.8063 43.3743 23.848 43.4648 23.8626 43.4967C23.9067 43.5848 23.9018 44.8727 23.8578 45.0172C23.6864 45.5852 23.3558 45.7884 22.6311 45.7713L22.3005 45.7639L22.2932 44.3096C22.2883 43.1612 22.2932 42.8503 22.3177 42.8331C22.3789 42.7964 22.9053 42.8136 23.133 42.8601Z" fill="#6AA8B3"/>
<path d="M31.8005 40.6124C31.7932 40.632 31.7907 42.2725 31.7932 44.2582L31.8005 47.8696H33.5022C35.1745 47.8696 35.9139 47.8451 36.1563 47.7815C36.2126 47.7668 36.2959 47.7448 36.3424 47.7325C36.597 47.6664 36.8051 47.6003 36.881 47.5611C36.9276 47.5366 37.0279 47.4877 37.1014 47.4534C37.3487 47.3383 37.5152 47.2183 37.7576 46.9808C37.973 46.7678 38.1542 46.5426 38.1542 46.4887C38.1542 46.4765 38.1689 46.4544 38.1861 46.4397C38.2424 46.3932 38.4333 45.9843 38.4897 45.7884C38.6366 45.2792 38.6929 44.8556 38.6929 44.2484C38.6929 43.7979 38.6366 43.2323 38.5705 42.9972C38.5582 42.9556 38.5239 42.8356 38.4946 42.7279C38.4652 42.6202 38.404 42.4512 38.3599 42.3533C38.3134 42.2529 38.2766 42.1647 38.2766 42.1525C38.2766 42.1427 38.2326 42.0693 38.1787 41.9909C38.1224 41.9101 38.0538 41.8073 38.022 41.7607C37.8506 41.5086 37.3438 41.0972 37.0328 40.9601C36.9569 40.9283 36.8492 40.8793 36.7953 40.8548C36.646 40.7863 36.22 40.6736 35.9506 40.632C35.8576 40.6173 34.9566 40.6026 33.8033 40.5928C32.1457 40.583 31.8103 40.5855 31.8005 40.6124ZM35.2651 42.8626C35.6421 42.9433 35.7621 43.0388 35.9212 43.389L36.0094 43.5848V44.2459C36.0118 44.814 36.0069 44.9217 35.9702 45.0049C35.9482 45.0588 35.909 45.1567 35.887 45.2229C35.8282 45.3845 35.6176 45.6097 35.4805 45.6587C35.1867 45.7615 35.101 45.7762 34.7582 45.7762C34.4669 45.7762 34.4105 45.7713 34.3983 45.737C34.391 45.715 34.3836 45.0637 34.3836 44.2851C34.3836 43.22 34.391 42.865 34.413 42.843C34.462 42.794 34.9982 42.8062 35.2651 42.8626Z" fill="#6AA8B3"/>
<path d="M46.9809 40.6148C46.9736 40.632 46.9711 42.2724 46.9736 44.2581L46.9809 47.8696L48.2174 47.8769C48.8981 47.8794 49.4783 47.8769 49.5102 47.8696L49.564 47.8574V46.4985C49.564 45.5681 49.5714 45.1371 49.591 45.1273C49.6179 45.1102 49.7109 45.1812 49.7109 45.2179C49.7109 45.2302 49.7722 45.3232 49.8456 45.4211C49.9191 45.5215 49.9803 45.6097 49.9803 45.6146C49.9803 45.6268 50.2961 46.0969 50.3402 46.1557C50.35 46.1679 50.4602 46.3295 50.5801 46.5107C50.7026 46.6919 50.9131 47.0053 51.0527 47.2036C51.1898 47.4044 51.3024 47.5733 51.3024 47.5782C51.3024 47.6076 51.5057 47.8549 51.5375 47.8671C51.5595 47.8745 52.0419 47.8818 52.6124 47.8818C53.5232 47.8818 53.6529 47.8769 53.6872 47.8427C53.7215 47.8084 53.7264 47.446 53.7264 44.2239C53.7264 41.227 53.7215 40.6369 53.6921 40.6124C53.6701 40.5928 53.3077 40.5879 52.3895 40.5904L51.1188 40.5977L51.1115 41.9566C51.109 42.7034 51.0968 43.3228 51.087 43.3326C51.0502 43.3693 51.0233 43.3326 50.4039 42.4169C50.2814 42.2333 50.1051 41.9737 50.0145 41.8415C49.924 41.7093 49.7109 41.3983 49.5444 41.1486C49.378 40.8989 49.2188 40.6712 49.1894 40.6393L49.1405 40.5855H48.0656C47.2282 40.5855 46.9883 40.5928 46.9809 40.6148Z" fill="#6AA8B3"/>
<path d="M54.5172 40.6026C54.4731 40.6197 54.4707 47.8084 54.5148 47.8525C54.5368 47.8745 55.1832 47.8818 57.2668 47.8818C59.7104 47.8818 59.9944 47.8769 60.0287 47.8427C60.063 47.8108 60.0678 47.6884 60.0678 46.8902C60.0678 46.092 60.063 45.9696 60.0287 45.9378C59.9944 45.9035 59.8279 45.8986 58.5474 45.8986H57.1052V45.5681V45.2375H58.3368C59.2623 45.2375 59.5757 45.2302 59.5977 45.2081C59.6345 45.1714 59.6394 43.313 59.6026 43.2543C59.5831 43.2224 59.4068 43.2151 58.349 43.2053L57.1175 43.1931V42.8748V42.5565L58.5694 42.5442C59.823 42.5344 60.0238 42.5271 60.0434 42.4952C60.0776 42.4438 60.0752 40.6932 60.0434 40.632C60.0189 40.5855 59.9626 40.5855 57.2815 40.5879C55.7782 40.5879 54.5319 40.5953 54.5172 40.6026Z" fill="#6AA8B3"/>
<path d="M26.8817 43.4894C26.8474 43.5212 26.8425 43.6486 26.8425 44.5031C26.8425 45.3576 26.8474 45.4849 26.8817 45.5167C26.916 45.551 27.1461 45.5559 29.0437 45.5559C30.6621 45.5559 31.1738 45.5486 31.1959 45.5265C31.2375 45.4849 31.2375 43.5212 31.1959 43.4796C31.1738 43.4576 30.6621 43.4502 29.0437 43.4502C27.1461 43.4502 26.916 43.4551 26.8817 43.4894Z" fill="#6AA8B3"/>
</svg>
