<?xml version="1.0" standalone="no"?>
<!DOCTYPE svg PUBLIC "-//W3C//DTD SVG 20010904//EN"
 "http://www.w3.org/TR/2001/REC-SVG-20010904/DTD/svg10.dtd">
<svg version="1.0" xmlns="http://www.w3.org/2000/svg"
 width="2828.000000pt" height="2828.000000pt" viewBox="0 0 2828.000000 2828.000000"
 preserveAspectRatio="xMidYMid meet">

<g transform="translate(0.000000,2828.000000) scale(0.100000,-0.100000)"
fill="#000000" stroke="none">
<path d="M3154 12119 c-219 -21 -390 -66 -549 -144 -228 -111 -361 -272 -427
-515 -20 -76 -23 -107 -23 -290 1 -179 4 -216 23 -290 86 -331 296 -499 902
-720 248 -91 284 -108 305 -150 34 -66 0 -126 -88 -157 -69 -24 -301 -24 -437
1 -193 34 -437 109 -595 181 -43 19 -81 35 -86 35 -5 0 -9 -187 -9 -421 l0
-420 73 -34 c148 -68 336 -116 587 -151 174 -25 633 -25 770 -1 296 52 486
136 643 285 182 174 267 382 267 656 0 294 -60 507 -185 659 -133 161 -306
252 -718 378 -128 39 -253 80 -279 91 -98 42 -104 119 -12 166 42 22 198 35
339 29 213 -10 441 -64 641 -152 31 -14 58 -25 60 -25 2 0 4 191 4 425 l0 425
-24 10 c-14 5 -96 25 -183 44 -369 82 -721 112 -999 85z"/>
<path d="M18652 12119 c-300 -27 -569 -110 -759 -236 -88 -58 -229 -198 -289
-289 -175 -262 -247 -564 -247 -1024 1 -576 120 -925 411 -1201 246 -234 617
-348 1127 -349 331 0 622 55 841 159 139 66 214 119 316 222 215 215 328 490
369 893 15 154 7 555 -15 691 -91 570 -367 908 -866 1058 -248 75 -580 103
-888 76z m403 -973 c64 -17 87 -29 136 -73 49 -44 72 -82 97 -160 66 -201 51
-598 -27 -752 -65 -126 -210 -190 -406 -178 -240 15 -348 120 -385 377 -15
103 -12 356 5 456 38 218 127 312 325 345 59 10 192 2 255 -15z"/>
<path d="M5545 12063 c-42 -110 -1095 -2987 -1095 -2994 0 -5 221 -9 559 -9
l559 0 16 43 c9 23 56 150 104 282 l87 240 337 3 336 2 16 -42 c9 -24 56 -151
104 -283 l87 -240 558 0 c306 0 558 3 560 6 1 3 -245 681 -548 1507 l-550
1502 -561 0 c-526 0 -562 -1 -569 -17z m659 -1335 c49 -128 97 -254 107 -280
l19 -48 -219 0 -219 0 106 280 c58 154 109 280 112 280 3 0 46 -105 94 -232z"/>
<path d="M8000 10570 l0 -1510 538 2 537 3 3 1508 2 1507 -540 0 -540 0 0
-1510z"/>
<path d="M9392 10573 l3 -1508 770 1 c848 0 894 3 1127 63 296 77 516 216 683
432 87 113 165 279 210 452 45 170 58 294 58 542 1 251 -14 390 -59 568 -140
554 -522 869 -1145 941 -110 13 -269 16 -892 16 l-757 0 2 -1507z m1451 561
c90 -20 136 -43 183 -91 87 -89 117 -213 118 -478 1 -217 -15 -319 -66 -420
-79 -158 -204 -214 -475 -215 l-133 0 0 610 0 610 151 0 c102 0 173 -5 222
-16z"/>
<path d="M14390 10569 l0 -1511 783 5 c842 5 879 7 1100 62 310 76 537 219
706 445 199 266 291 668 261 1144 -28 455 -137 747 -365 981 -188 192 -420
303 -760 361 -88 16 -200 18 -912 21 l-813 4 0 -1512z m1453 565 c127 -29 190
-75 240 -178 47 -96 60 -180 60 -396 0 -225 -12 -304 -68 -416 -78 -160 -200
-214 -482 -214 l-123 0 0 610 0 610 151 0 c102 0 173 -5 222 -16z"/>
<path d="M20660 10570 l0 -1510 538 2 537 3 5 584 5 584 395 -584 396 -584
454 0 455 0 3 1508 2 1507 -540 0 -540 0 0 -586 c0 -322 -3 -583 -7 -581 -5 3
-186 267 -403 586 l-395 581 -452 0 -453 0 0 -1510z"/>
<path d="M23762 10573 l3 -1508 1148 -3 1147 -2 0 410 0 410 -610 0 -610 0 0
135 0 135 525 0 525 0 0 425 0 425 -525 0 -526 0 3 133 3 132 608 3 607 2 0
405 0 405 -1150 0 -1150 0 2 -1507z"/>
<path d="M12355 10877 c-3 -6 -4 -201 -3 -432 l3 -420 900 0 900 0 3 433 2
432 -900 0 c-711 0 -902 -3 -905 -13z"/>
</g>
</svg>
