<?xml version="1.0" standalone="no"?>
<!DOCTYPE svg PUBLIC "-//W3C//DTD SVG 20010904//EN"
 "http://www.w3.org/TR/2001/REC-SVG-20010904/DTD/svg10.dtd">
<svg version="1.0" xmlns="http://www.w3.org/2000/svg"
 width="2828.000000pt" height="2828.000000pt" viewBox="0 0 2828.000000 2828.000000"
 preserveAspectRatio="xMidYMid meet">

<g transform="translate(0.000000,2828.000000) scale(0.100000,-0.100000)"
fill="#000000" stroke="none">
<path d="M7263 14750 c-346 -51 -660 -324 -773 -672 -47 -144 -45 15 -45
-3503 0 -3161 1 -3324 18 -3394 44 -180 127 -339 240 -458 142 -149 274 -229
470 -284 139 -39 264 -41 1815 -34 2576 13 2821 12 2832 -5 6 -9 10 -318 10
-787 0 -726 -1 -773 -17 -781 -11 -5 -1609 -10 -3818 -11 -2639 -2 -3815 -5
-3850 -13 -144 -30 -235 -140 -235 -283 1 -165 111 -275 298 -296 55 -6 3007
-8 7987 -7 l7900 3 60 25 c154 65 230 225 175 372 -37 99 -119 167 -227 187
-30 6 -1539 10 -3839 12 -2084 0 -3799 3 -3811 6 l-23 5 0 784 0 784 28 11
c18 7 252 9 742 5 1776 -15 3537 -18 3663 -6 192 16 320 58 462 148 239 152
399 396 445 677 8 51 10 953 8 3390 l-3 3320 -23 80 c-52 177 -146 336 -270
457 -122 119 -245 191 -421 246 l-86 27 -4830 1 c-2656 1 -4853 -2 -4882 -6z
m9651 -565 c133 -40 230 -135 276 -269 20 -59 20 -72 20 -2601 0 -2204 2
-2555 15 -2641 8 -54 15 -161 15 -236 0 -125 -2 -138 -19 -148 -13 -7 -1629
-10 -5108 -10 l-5088 0 -7 37 c-3 21 -7 1269 -7 2773 -1 2454 0 2741 14 2795
38 145 133 244 285 301 28 10 914 13 4795 13 4191 1 4766 -1 4809 -14z m-4767
-6495 l5064 0 -3 -207 -3 -208 -32 -67 c-41 -88 -113 -160 -201 -201 l-67 -32
-4790 0 -4790 0 -60 24 c-109 44 -217 173 -245 293 -11 50 -14 391 -3 402 5 4
21 5 37 2 16 -3 2307 -6 5093 -6z"/>
<path d="M11565 13625 c-155 -54 -172 -66 -336 -224 -107 -104 -121 -121 -165
-210 -55 -113 -72 -168 -86 -276 -12 -103 -12 -152 0 -250 19 -151 53 -241
140 -370 58 -86 1056 -1080 1104 -1100 52 -21 232 -21 284 1 28 11 183 159
555 532 284 284 530 537 545 561 54 82 80 136 112 232 31 93 32 101 32 265 0
159 -2 174 -29 260 -60 187 -127 289 -276 417 -104 90 -194 134 -381 188 -17
5 -104 9 -194 9 -148 0 -169 -2 -232 -25 -38 -14 -80 -25 -92 -25 -13 0 -28
-6 -34 -13 -6 -7 -43 -28 -82 -47 l-71 -34 -84 42 c-46 24 -124 56 -172 73
-84 28 -92 29 -267 28 -176 -2 -183 -3 -271 -34z m458 -298 c74 -26 150 -70
212 -126 17 -15 53 -35 80 -44 47 -16 53 -15 103 2 30 10 70 34 90 53 56 52
113 85 199 115 66 24 94 28 183 28 87 0 112 -4 145 -21 22 -12 51 -24 65 -27
14 -3 60 -29 103 -57 80 -52 118 -98 179 -214 47 -90 58 -137 58 -253 0 -85
-4 -120 -20 -162 -25 -64 -55 -124 -83 -166 -12 -16 -231 -240 -487 -497 -319
-322 -472 -468 -486 -468 -14 0 -166 145 -482 463 -253 254 -472 478 -486 497
-52 72 -106 201 -106 253 0 14 -4 37 -10 51 -23 61 39 263 113 370 51 74 126
135 207 169 164 69 153 67 260 63 60 -2 108 -11 163 -29z"/>
<path d="M13975 11346 c-92 -34 -75 -20 -383 -312 -70 -66 -145 -133 -167
-149 -22 -16 -108 -96 -192 -177 -83 -82 -155 -148 -160 -148 -16 0 -33 24
-33 47 0 48 -66 156 -136 224 -57 54 -81 70 -136 87 -63 21 -86 22 -401 22
l-333 0 -91 44 c-90 44 -196 79 -328 110 -96 22 -365 22 -438 0 -29 -8 -70
-20 -92 -25 -109 -28 -218 -72 -282 -116 -30 -21 -72 -49 -91 -62 -20 -13 -43
-31 -51 -39 -8 -7 -31 -24 -51 -37 -20 -12 -49 -39 -66 -59 -16 -20 -48 -58
-70 -85 -23 -27 -50 -63 -60 -80 -21 -35 -43 -39 -97 -16 -31 13 -40 13 -87
-4 -46 -16 -80 -47 -282 -247 -126 -126 -238 -246 -249 -266 -10 -21 -19 -56
-19 -80 l0 -43 630 -630 630 -630 75 0 75 0 235 235 c130 129 242 248 250 264
8 16 15 48 15 71 0 27 7 50 18 63 19 22 105 52 148 52 26 0 38 3 129 31 25 8
150 15 330 20 400 11 644 31 692 57 12 7 31 12 43 12 58 0 396 151 505 224 67
46 216 181 439 399 49 48 94 87 100 87 5 0 117 107 249 238 244 243 271 276
312 394 30 86 13 251 -33 319 -57 86 -72 106 -93 124 -95 81 -164 105 -294
104 -78 0 -113 -5 -160 -23z m215 -307 c52 -30 78 -86 60 -130 -13 -30 -632
-654 -668 -673 -9 -5 -60 -50 -112 -101 -52 -52 -133 -119 -180 -150 -101 -68
-310 -175 -342 -175 -13 0 -47 -11 -76 -25 -32 -15 -72 -25 -99 -25 -24 0 -52
-4 -61 -9 -9 -5 -42 -11 -72 -14 -59 -6 -466 -25 -665 -31 -166 -5 -269 -25
-473 -92 -74 -24 -137 -44 -140 -44 -8 0 -742 733 -742 741 0 17 118 181 163
227 89 91 212 166 334 206 173 56 181 58 293 53 176 -8 235 -23 405 -107 l100
-50 361 -2 361 -3 36 -28 c20 -15 42 -37 48 -49 30 -55 1 -164 -50 -188 -33
-17 -109 -29 -241 -40 -58 -5 -174 -15 -258 -22 l-154 -13 -34 -37 c-32 -36
-34 -42 -34 -109 0 -70 1 -72 39 -111 l40 -39 148 5 c145 5 263 13 533 36 138
12 287 48 323 78 18 16 30 23 87 57 36 20 161 135 433 396 83 81 159 150 169
155 9 5 76 68 150 139 203 198 239 218 318 174z m-3845 -911 c30 -29 63 -61
72 -70 10 -10 146 -146 303 -303 157 -156 291 -290 298 -297 85 -83 182 -192
182 -203 0 -17 -128 -155 -173 -187 l-29 -21 -459 459 c-299 299 -459 466
-459 479 0 25 168 195 193 195 10 0 42 -24 72 -52z"/>
</g>
</svg>
