<?xml version="1.0" encoding="UTF-8"?>
<!DOCTYPE svg PUBLIC "-//W3C//DTD SVG 1.1//EN" "http://www.w3.org/Graphics/SVG/1.1/DTD/svg11.dtd">
<svg xmlns="http://www.w3.org/2000/svg" version="1.1" width="109px" height="109px" style="shape-rendering:geometricPrecision; text-rendering:geometricPrecision; image-rendering:optimizeQuality; fill-rule:evenodd; clip-rule:evenodd" xmlns:xlink="http://www.w3.org/1999/xlink">
<g><path style="opacity:1" fill="#fdfcf8" d="M -0.5,-0.5 C 25.8333,-0.5 52.1667,-0.5 78.5,-0.5C 79.7602,1.84653 79.0935,3.67986 76.5,5C 77.3805,5.7083 78.0472,6.54163 78.5,7.5C 50.438,-4.03721 26.938,1.96279 8,25.5C 4.61346,31.0378 2.44679,37.0378 1.5,43.5C 0.833333,45.5 0.166667,47.5 -0.5,49.5C -0.5,32.8333 -0.5,16.1667 -0.5,-0.5 Z"/></g>
<g><path style="opacity:1" fill="#fdfcf9" d="M 78.5,-0.5 C 88.5,-0.5 98.5,-0.5 108.5,-0.5C 108.5,14.1667 108.5,28.8333 108.5,43.5C 107.833,42.8333 107.167,42.1667 106.5,41.5C 103.93,31.112 98.5969,22.4454 90.5,15.5C 89.4154,13.4131 87.7488,12.0798 85.5,11.5C 83.1838,10.1944 80.8505,8.86111 78.5,7.5C 78.0472,6.54163 77.3805,5.7083 76.5,5C 79.0935,3.67986 79.7602,1.84653 78.5,-0.5 Z"/></g>
<g><path style="opacity:1" fill="#fbae34" d="M 78.5,7.5 C 80.8505,8.86111 83.1838,10.1944 85.5,11.5C 85.8333,12.1667 86.1667,12.8333 86.5,13.5C 82.5191,12.9791 78.5191,12.6458 74.5,12.5C 75.2625,11.7321 76.2625,11.2321 77.5,11C 73.1477,8.60505 68.481,7.10505 63.5,6.5C 56.3451,5.34485 49.0118,5.17818 41.5,6C 40.5842,6.27842 39.9175,6.77842 39.5,7.5C 21.1993,12.9682 9.366,24.9682 4,43.5C 1.16827,62.2011 6.33494,78.2011 19.5,91.5C 19.1583,92.3382 18.4916,92.6716 17.5,92.5C 7.73567,85.3068 2.40234,75.6401 1.5,63.5C 1.5,56.8333 1.5,50.1667 1.5,43.5C 2.44679,37.0378 4.61346,31.0378 8,25.5C 26.938,1.96279 50.438,-4.03721 78.5,7.5 Z"/></g>
<g><path style="opacity:1" fill="#fde3b6" d="M 63.5,6.5 C 55.4659,6.3018 47.4659,6.63514 39.5,7.5C 39.9175,6.77842 40.5842,6.27842 41.5,6C 49.0118,5.17818 56.3451,5.34485 63.5,6.5 Z"/></g>
<g><path style="opacity:1" fill="#fcfbf6" d="M 63.5,6.5 C 68.481,7.10505 73.1477,8.60505 77.5,11C 76.2625,11.2321 75.2625,11.7321 74.5,12.5C 72.302,12.1201 70.6354,12.7868 69.5,14.5C 68.1825,14.821 66.8492,15.1543 65.5,15.5C 60.0233,11.5642 54.0233,10.5642 47.5,12.5C 47.5,13.5 47.5,14.5 47.5,15.5C 43.963,16.3857 42.2963,18.719 42.5,22.5C 41.2015,26.4076 41.3682,30.4076 43,34.5C 47.5805,42.2482 53.4139,48.9149 60.5,54.5C 60.5,55.5 60.5,56.5 60.5,57.5C 56.2558,56.2173 51.9225,55.2173 47.5,54.5C 44.3601,53.3592 41.0267,53.1925 37.5,54C 36.944,54.3826 36.6107,54.8826 36.5,55.5C 34.6316,56.2632 32.9649,57.2632 31.5,58.5C 29.2258,59.597 27.0591,60.9304 25,62.5C 23.3566,61.6854 21.8566,60.6854 20.5,59.5C 19.7494,58.4265 18.7494,58.2599 17.5,59C 16.3774,60.0437 15.0441,60.7104 13.5,61C 12.7476,61.6708 12.4142,62.5041 12.5,63.5C 11.1024,66.007 11.4357,68.3403 13.5,70.5C 15.9245,77.1729 19.0912,83.5062 23,89.5C 23.6965,93.8174 22.5298,94.484 19.5,91.5C 6.33494,78.2011 1.16827,62.2011 4,43.5C 9.366,24.9682 21.1993,12.9682 39.5,7.5C 47.4659,6.63514 55.4659,6.3018 63.5,6.5 Z"/></g>
<g><path style="opacity:1" fill="#fcd593" d="M 85.5,11.5 C 87.7488,12.0798 89.4154,13.4131 90.5,15.5C 88.9382,15.2671 87.6049,14.6005 86.5,13.5C 86.1667,12.8333 85.8333,12.1667 85.5,11.5 Z"/></g>
<g><path style="opacity:1" fill="#f88424" d="M 69.5,14.5 C 68.3398,16.2027 69.0065,16.8693 71.5,16.5C 71.1667,17.1667 70.8333,17.8333 70.5,18.5C 69.1434,19.6854 67.6434,20.6854 66,21.5C 62.8425,18.3367 59.0092,16.3367 54.5,15.5C 51.3788,15.9616 48.7122,17.2949 46.5,19.5C 46.1034,18.475 45.4368,18.3083 44.5,19C 43.9152,20.3024 43.2485,21.469 42.5,22.5C 42.2963,18.719 43.963,16.3857 47.5,15.5C 47.5,14.5 47.5,13.5 47.5,12.5C 54.0233,10.5642 60.0233,11.5642 65.5,15.5C 66.8492,15.1543 68.1825,14.821 69.5,14.5 Z"/></g>
<g><path style="opacity:1" fill="#fa7215" d="M 74.5,12.5 C 78.5191,12.6458 82.5191,12.9791 86.5,13.5C 86.615,15.9468 87.615,17.9468 89.5,19.5C 91.3003,27.6312 89.6337,34.9645 84.5,41.5C 83.6236,41.6309 82.9569,41.2975 82.5,40.5C 83.1272,39.5832 83.4606,38.5832 83.5,37.5C 84.5,34.8333 85.5,32.1667 86.5,29.5C 87.6341,27.0336 87.8007,24.367 87,21.5C 86.2917,20.6195 85.4584,19.9528 84.5,19.5C 83.4154,17.4131 81.7488,16.0798 79.5,15.5C 76.7212,15.2786 74.0545,15.612 71.5,16.5C 69.0065,16.8693 68.3398,16.2027 69.5,14.5C 70.6354,12.7868 72.302,12.1201 74.5,12.5 Z"/></g>
<g><path style="opacity:1" fill="#fbad32" d="M 86.5,13.5 C 87.6049,14.6005 88.9382,15.2671 90.5,15.5C 98.5969,22.4454 103.93,31.112 106.5,41.5C 107.307,47.4638 107.64,53.4638 107.5,59.5C 107.663,61.8568 107.497,64.1902 107,66.5C 104.803,70.5902 103.303,74.9236 102.5,79.5C 102.167,79.5 101.833,79.5 101.5,79.5C 99.1992,82.8101 96.8658,86.1434 94.5,89.5C 90.5634,93.4713 86.23,96.9713 81.5,100C 76.8562,101.328 72.5228,103.161 68.5,105.5C 65.1667,106.167 61.8333,106.833 58.5,107.5C 44.4611,107.709 31.7944,103.709 20.5,95.5C 22.3093,94.7093 24.3093,94.7093 26.5,95.5C 27.7489,97.1361 29.4156,98.3028 31.5,99C 34.8944,100.075 38.2278,101.242 41.5,102.5C 48.6549,103.655 55.9882,103.822 63.5,103C 64.7375,102.768 65.7375,102.268 66.5,101.5C 78.3526,99.7429 87.3526,93.7429 93.5,83.5C 99.5353,78.2734 103.035,71.6067 104,63.5C 104.667,57.1667 104.667,50.8333 104,44.5C 101.704,38.8528 99.3703,33.1862 97,27.5C 94.9999,24.3343 92.4999,21.6676 89.5,19.5C 87.615,17.9468 86.615,15.9468 86.5,13.5 Z"/></g>
<g><path style="opacity:1" fill="#f2a06a" d="M 84.5,19.5 C 85.4584,19.9528 86.2917,20.6195 87,21.5C 87.8007,24.367 87.6341,27.0336 86.5,29.5C 86.845,25.8849 86.1783,22.5516 84.5,19.5 Z"/></g>
<g><path style="opacity:1" fill="#fbfbf6" d="M 70.5,18.5 C 73.984,18.3233 76.984,17.3233 79.5,15.5C 81.7488,16.0798 83.4154,17.4131 84.5,19.5C 86.1783,22.5516 86.845,25.8849 86.5,29.5C 85.5,32.1667 84.5,34.8333 83.5,37.5C 79.0016,42.7686 74.0016,47.602 68.5,52C 66.8333,52.6667 65.1667,52.6667 63.5,52C 57.6667,47.5 52.5,42.3333 48,36.5C 45.3847,31.0145 44.8847,25.3478 46.5,19.5C 48.7122,17.2949 51.3788,15.9616 54.5,15.5C 59.0092,16.3367 62.8425,18.3367 66,21.5C 67.6434,20.6854 69.1434,19.6854 70.5,18.5 Z"/></g>
<g><path style="opacity:1" fill="#fcdfbf" d="M 79.5,15.5 C 76.984,17.3233 73.984,18.3233 70.5,18.5C 70.8333,17.8333 71.1667,17.1667 71.5,16.5C 74.0545,15.612 76.7212,15.2786 79.5,15.5 Z"/></g>
<g><path style="opacity:1" fill="#fcf9f0" d="M 89.5,19.5 C 92.4999,21.6676 94.9999,24.3343 97,27.5C 99.3703,33.1862 101.704,38.8528 104,44.5C 104.667,50.8333 104.667,57.1667 104,63.5C 103.035,71.6067 99.5353,78.2734 93.5,83.5C 90.8497,80.4036 88.0164,77.4036 85,74.5C 82.4575,75.8764 82.2908,77.043 84.5,78C 83.4366,79.1882 82.1033,79.6882 80.5,79.5C 80.1904,83.5046 78.1904,84.5046 74.5,82.5C 72.8228,83.1869 71.1561,83.8535 69.5,84.5C 69.5,84.1667 69.5,83.8333 69.5,83.5C 78.4387,78.2108 86.772,72.2108 94.5,65.5C 95.6291,63.3718 95.7958,61.0385 95,58.5C 94.2917,57.6195 93.4584,56.9528 92.5,56.5C 90.0336,55.3659 87.367,55.1993 84.5,56C 78.5879,58.778 73.2546,62.278 68.5,66.5C 67.8501,66.8039 67.1835,67.1373 66.5,67.5C 65.8956,64.7367 64.5623,62.4034 62.5,60.5C 57.0922,59.2589 52.0922,57.2589 47.5,54.5C 51.9225,55.2173 56.2558,56.2173 60.5,57.5C 60.5,56.5 60.5,55.5 60.5,54.5C 62.7526,56.702 65.4192,57.5353 68.5,57C 74.3901,52.2746 79.7234,47.1079 84.5,41.5C 89.6337,34.9645 91.3003,27.6312 89.5,19.5 Z"/></g>
<g><path style="opacity:1" fill="#f99126" d="M 46.5,19.5 C 44.8847,25.3478 45.3847,31.0145 48,36.5C 52.5,42.3333 57.6667,47.5 63.5,52C 65.1667,52.6667 66.8333,52.6667 68.5,52C 74.0016,47.602 79.0016,42.7686 83.5,37.5C 83.4606,38.5832 83.1272,39.5832 82.5,40.5C 82.9569,41.2975 83.6236,41.6309 84.5,41.5C 79.7234,47.1079 74.3901,52.2746 68.5,57C 65.4192,57.5353 62.7526,56.702 60.5,54.5C 53.4139,48.9149 47.5805,42.2482 43,34.5C 41.3682,30.4076 41.2015,26.4076 42.5,22.5C 43.2485,21.469 43.9152,20.3024 44.5,19C 45.4368,18.3083 46.1034,18.475 46.5,19.5 Z"/></g>
<g><path style="opacity:1" fill="#f1c76f" d="M 47.5,54.5 C 43.7657,54.3227 40.0991,54.6561 36.5,55.5C 36.6107,54.8826 36.944,54.3826 37.5,54C 41.0267,53.1925 44.3601,53.3592 47.5,54.5 Z"/></g>
<g><path style="opacity:1" fill="#f8b647" d="M 1.5,43.5 C 1.5,50.1667 1.5,56.8333 1.5,63.5C 0.833333,62.5 0.166667,61.5 -0.5,60.5C -0.5,56.8333 -0.5,53.1667 -0.5,49.5C 0.166667,47.5 0.833333,45.5 1.5,43.5 Z"/></g>
<g><path style="opacity:1" fill="#ffd579" d="M 106.5,41.5 C 107.167,42.1667 107.833,42.8333 108.5,43.5C 108.5,48.8333 108.5,54.1667 108.5,59.5C 108.167,59.5 107.833,59.5 107.5,59.5C 107.64,53.4638 107.307,47.4638 106.5,41.5 Z"/></g>
<g><path style="opacity:1" fill="#f6a95d" d="M 92.5,56.5 C 93.4584,56.9528 94.2917,57.6195 95,58.5C 95.7958,61.0385 95.6291,63.3718 94.5,65.5C 94.7896,62.2153 94.123,59.2153 92.5,56.5 Z"/></g>
<g><path style="opacity:1" fill="#fae7ac" d="M 20.5,59.5 C 17.7406,60.6424 15.0739,61.9757 12.5,63.5C 12.4142,62.5041 12.7476,61.6708 13.5,61C 15.0441,60.7104 16.3774,60.0437 17.5,59C 18.7494,58.2599 19.7494,58.4265 20.5,59.5 Z"/></g>
<g><path style="opacity:1" fill="#fcfaf1" d="M 53.5,61.5 C 53.9528,62.4584 54.6195,63.2917 55.5,64C 52.3812,65.4051 49.0479,65.9051 45.5,65.5C 45.2291,67.3797 45.8958,68.713 47.5,69.5C 53.565,72.1585 59.8983,72.9918 66.5,72C 67.5707,71.1482 68.5707,70.3149 69.5,69.5C 74.8097,66.8438 79.8097,63.6772 84.5,60C 91.7463,58.5542 93.0796,60.5542 88.5,66C 81.235,70.1205 74.5684,74.9539 68.5,80.5C 65.6523,82.495 62.4856,83.8284 59,84.5C 52.9528,83.8173 47.1195,82.3173 41.5,80C 38.1832,79.5017 34.8499,79.335 31.5,79.5C 30.533,75.1081 28.8663,70.9414 26.5,67C 27.5442,65.8261 28.5442,64.6594 29.5,63.5C 33.5964,61.3686 37.7631,59.3686 42,57.5C 46.006,58.4238 49.8394,59.7571 53.5,61.5 Z"/></g>
<g><path style="opacity:1" fill="#fbb125" d="M 31.5,58.5 C 30.0582,59.8195 29.3915,61.4862 29.5,63.5C 28.5442,64.6594 27.5442,65.8261 26.5,67C 28.8663,70.9414 30.533,75.1081 31.5,79.5C 34.8499,79.335 38.1832,79.5017 41.5,80C 47.1195,82.3173 52.9528,83.8173 59,84.5C 62.4856,83.8284 65.6523,82.495 68.5,80.5C 68.0472,81.4584 67.3805,82.2917 66.5,83C 67.448,83.4828 68.448,83.6495 69.5,83.5C 69.5,83.8333 69.5,84.1667 69.5,84.5C 67.4048,85.412 65.4048,86.5787 63.5,88C 61.8333,88.1667 60.1667,88.3333 58.5,88.5C 50.8738,86.7079 43.2071,85.0412 35.5,83.5C 33.9008,84.562 32.2341,84.562 30.5,83.5C 28.3505,79.037 26.0172,74.7036 23.5,70.5C 22.5448,68.2543 21.8782,65.921 21.5,63.5C 19.901,63.2322 18.5676,63.5655 17.5,64.5C 16.1938,65.4674 15.5271,66.8007 15.5,68.5C 15.5,69.8333 14.8333,70.5 13.5,70.5C 11.4357,68.3403 11.1024,66.007 12.5,63.5C 15.0739,61.9757 17.7406,60.6424 20.5,59.5C 21.8566,60.6854 23.3566,61.6854 25,62.5C 27.0591,60.9304 29.2258,59.597 31.5,58.5 Z"/></g>
<g><path style="opacity:1" fill="#fcebc0" d="M 53.5,61.5 C 55.403,61.7959 57.0697,62.4625 58.5,63.5C 55.4234,66.3434 56.0901,67.6768 60.5,67.5C 60.5,66.1667 60.5,64.8333 60.5,63.5C 61.4511,64.9187 61.7845,66.5853 61.5,68.5C 56.7986,68.0431 52.132,67.3764 47.5,66.5C 47.5,67.5 47.5,68.5 47.5,69.5C 45.8958,68.713 45.2291,67.3797 45.5,65.5C 49.0479,65.9051 52.3812,65.4051 55.5,64C 54.6195,63.2917 53.9528,62.4584 53.5,61.5 Z"/></g>
<g><path style="opacity:1" fill="#f99b1d" d="M 47.5,54.5 C 52.0922,57.2589 57.0922,59.2589 62.5,60.5C 64.5623,62.4034 65.8956,64.7367 66.5,67.5C 67.1835,67.1373 67.8501,66.8039 68.5,66.5C 68.2627,67.791 68.596,68.791 69.5,69.5C 68.5707,70.3149 67.5707,71.1482 66.5,72C 59.8983,72.9918 53.565,72.1585 47.5,69.5C 47.5,68.5 47.5,67.5 47.5,66.5C 52.132,67.3764 56.7986,68.0431 61.5,68.5C 61.7845,66.5853 61.4511,64.9187 60.5,63.5C 59.8333,63.5 59.1667,63.5 58.5,63.5C 57.0697,62.4625 55.403,61.7959 53.5,61.5C 49.8394,59.7571 46.006,58.4238 42,57.5C 37.7631,59.3686 33.5964,61.3686 29.5,63.5C 29.3915,61.4862 30.0582,59.8195 31.5,58.5C 32.9649,57.2632 34.6316,56.2632 36.5,55.5C 40.0991,54.6561 43.7657,54.3227 47.5,54.5 Z"/></g>
<g><path style="opacity:1" fill="#fdead1" d="M 17.5,64.5 C 19.1788,64.2852 20.1788,64.9519 20.5,66.5C 18.4862,66.3915 16.8195,67.0582 15.5,68.5C 15.5271,66.8007 16.1938,65.4674 17.5,64.5 Z"/></g>
<g><path style="opacity:1" fill="#f8de8a" d="M 17.5,64.5 C 18.5676,63.5655 19.901,63.2322 21.5,63.5C 21.8782,65.921 22.5448,68.2543 23.5,70.5C 22.609,69.8902 21.609,69.5569 20.5,69.5C 20.5,68.5 20.5,67.5 20.5,66.5C 20.1788,64.9519 19.1788,64.2852 17.5,64.5 Z"/></g>
<g><path style="opacity:1" fill="#fafbfb" d="M 58.5,63.5 C 59.1667,63.5 59.8333,63.5 60.5,63.5C 60.5,64.8333 60.5,66.1667 60.5,67.5C 56.0901,67.6768 55.4234,66.3434 58.5,63.5 Z"/></g>
<g><path style="opacity:1" fill="#f99528" d="M 92.5,56.5 C 94.123,59.2153 94.7896,62.2153 94.5,65.5C 86.772,72.2108 78.4387,78.2108 69.5,83.5C 68.448,83.6495 67.448,83.4828 66.5,83C 67.3805,82.2917 68.0472,81.4584 68.5,80.5C 74.5684,74.9539 81.235,70.1205 88.5,66C 93.0796,60.5542 91.7463,58.5542 84.5,60C 79.8097,63.6772 74.8097,66.8438 69.5,69.5C 68.596,68.791 68.2627,67.791 68.5,66.5C 73.2546,62.278 78.5879,58.778 84.5,56C 87.367,55.1993 90.0336,55.3659 92.5,56.5 Z"/></g>
<g><path style="opacity:1" fill="#fbf7ea" d="M 20.5,69.5 C 21.609,69.5569 22.609,69.8902 23.5,70.5C 26.0172,74.7036 28.3505,79.037 30.5,83.5C 31.7298,85.2972 32.3964,87.2972 32.5,89.5C 30.54,90.1383 28.7067,90.1383 27,89.5C 23.8126,83.1252 20.6459,76.7919 17.5,70.5C 18.325,69.6143 19.325,69.281 20.5,69.5 Z"/></g>
<g><path style="opacity:1" fill="#fef4e1" d="M 107.5,59.5 C 107.833,59.5 108.167,59.5 108.5,59.5C 108.5,65.1667 108.5,70.8333 108.5,76.5C 107.661,77.6412 106.994,78.9745 106.5,80.5C 104.105,81.2183 103.938,80.5517 106,78.5C 106.667,76.8333 106.667,75.1667 106,73.5C 104.918,75.6181 103.751,77.6181 102.5,79.5C 103.303,74.9236 104.803,70.5902 107,66.5C 107.497,64.1902 107.663,61.8568 107.5,59.5 Z"/></g>
<g><path style="opacity:1" fill="#fcfdfb" d="M 108.5,76.5 C 108.5,87.1667 108.5,97.8333 108.5,108.5C 91.8333,108.5 75.1667,108.5 58.5,108.5C 58.5,108.167 58.5,107.833 58.5,107.5C 61.8333,106.833 65.1667,106.167 68.5,105.5C 72.1461,105.423 75.4794,104.423 78.5,102.5C 79.2807,103.737 80.2807,104.737 81.5,105.5C 83.0093,103.344 84.0093,101.01 84.5,98.5C 87.0237,97.1783 89.6904,96.0116 92.5,95C 95.0823,93.6618 95.7489,91.8285 94.5,89.5C 98.4108,87.2582 100.744,83.9248 101.5,79.5C 101.833,79.5 102.167,79.5 102.5,79.5C 103.751,77.6181 104.918,75.6181 106,73.5C 106.667,75.1667 106.667,76.8333 106,78.5C 103.938,80.5517 104.105,81.2183 106.5,80.5C 106.994,78.9745 107.661,77.6412 108.5,76.5 Z"/></g>
<g><path style="opacity:1" fill="#fbfcf7" d="M 93.5,83.5 C 87.3526,93.7429 78.3526,99.7429 66.5,101.5C 58.1876,102.24 49.8543,102.573 41.5,102.5C 38.2278,101.242 34.8944,100.075 31.5,99C 29.4156,98.3028 27.7489,97.1361 26.5,95.5C 30.1985,94.9962 33.3652,93.3296 36,90.5C 36.3336,88.1527 36.167,85.8194 35.5,83.5C 43.2071,85.0412 50.8738,86.7079 58.5,88.5C 60.1667,88.3333 61.8333,88.1667 63.5,88C 65.4048,86.5787 67.4048,85.412 69.5,84.5C 71.1561,83.8535 72.8228,83.1869 74.5,82.5C 78.1904,84.5046 80.1904,83.5046 80.5,79.5C 82.1033,79.6882 83.4366,79.1882 84.5,78C 82.2908,77.043 82.4575,75.8764 85,74.5C 88.0164,77.4036 90.8497,80.4036 93.5,83.5 Z"/></g>
<g><path style="opacity:1" fill="#fdfbf7" d="M -0.5,60.5 C 0.166667,61.5 0.833333,62.5 1.5,63.5C 2.40234,75.6401 7.73567,85.3068 17.5,92.5C 17.5,94.5 18.5,95.5 20.5,95.5C 31.7944,103.709 44.4611,107.709 58.5,107.5C 58.5,107.833 58.5,108.167 58.5,108.5C 38.8333,108.5 19.1667,108.5 -0.5,108.5C -0.5,92.5 -0.5,76.5 -0.5,60.5 Z"/></g>
<g><path style="opacity:1" fill="#f9be30" d="M 20.5,66.5 C 20.5,67.5 20.5,68.5 20.5,69.5C 19.325,69.281 18.325,69.6143 17.5,70.5C 20.6459,76.7919 23.8126,83.1252 27,89.5C 28.7067,90.1383 30.54,90.1383 32.5,89.5C 32.3964,87.2972 31.7298,85.2972 30.5,83.5C 32.2341,84.562 33.9008,84.562 35.5,83.5C 36.167,85.8194 36.3336,88.1527 36,90.5C 33.3652,93.3296 30.1985,94.9962 26.5,95.5C 24.3093,94.7093 22.3093,94.7093 20.5,95.5C 18.5,95.5 17.5,94.5 17.5,92.5C 18.4916,92.6716 19.1583,92.3382 19.5,91.5C 22.5298,94.484 23.6965,93.8174 23,89.5C 19.0912,83.5062 15.9245,77.1729 13.5,70.5C 14.8333,70.5 15.5,69.8333 15.5,68.5C 16.8195,67.0582 18.4862,66.3915 20.5,66.5 Z"/></g>
<g><path style="opacity:1" fill="#ffdfb0" d="M 101.5,79.5 C 100.744,83.9248 98.4108,87.2582 94.5,89.5C 96.8658,86.1434 99.1992,82.8101 101.5,79.5 Z"/></g>
<g><path style="opacity:1" fill="#fdecc0" d="M 66.5,101.5 C 65.7375,102.268 64.7375,102.768 63.5,103C 55.9882,103.822 48.6549,103.655 41.5,102.5C 49.8543,102.573 58.1876,102.24 66.5,101.5 Z"/></g>
<g><path style="opacity:1" fill="#fcf3db" d="M 94.5,89.5 C 95.7489,91.8285 95.0823,93.6618 92.5,95C 89.6904,96.0116 87.0237,97.1783 84.5,98.5C 84.0093,101.01 83.0093,103.344 81.5,105.5C 80.2807,104.737 79.2807,103.737 78.5,102.5C 75.4794,104.423 72.1461,105.423 68.5,105.5C 72.5228,103.161 76.8562,101.328 81.5,100C 86.23,96.9713 90.5634,93.4713 94.5,89.5 Z"/></g>
</svg>
